PathFileType	4	(X/Y/Z)	C:\Users\Basilio\Documents\Thesis Gigler\squatting_fais\c3dfiles\076\SLS_back_pre2\markers_experimental.trc
DataRate	CameraRate	NumFrames	NumMarkers	Units	OrigDataRate	OrigDataStartFrame	OrigNumFrames
200.000000	200.000000	4	61	mm	200.000000	0	1947
Frame#	Time	FHD			LBHD			RBHD			C7			T10			CLAV			LSHO			LUUPA			LMUPA			LDUPA			LLEP			LMEP			LRAD			LUL			LRFIN			RSHO			RUPA1			RMUPA			RDUPA			RLEP			RMEP			RRAD			RUL			RUFIN			RASI			USACR			LSACR			RSACR			LTHI1			LTHI2			LTHI3			LTHI4			LLFC			LMFC			LTIB1			LTIB2			LTIB3			LTIB4			LLMAL			LMMAL			LHEE			LMT1			LMT2			LMT5			RTHI			RTHI2			RTHI3			RTHI4			RLFC			RMFC			RTIB1			RTIB2			RTIB3			RTIB4			RLMAL			RMMAL			RHEE			RMT1			RMT2			RMT5			LASI			
		X1	Y1	Z1	X2	Y2	Z2	X3	Y3	Z3	X4	Y4	Z4	X5	Y5	Z5	X6	Y6	Z6	X7	Y7	Z7	X8	Y8	Z8	X9	Y9	Z9	X10	Y10	Z10	X11	Y11	Z11	X12	Y12	Z12	X13	Y13	Z13	X14	Y14	Z14	X15	Y15	Z15	X16	Y16	Z16	X17	Y17	Z17	X18	Y18	Z18	X19	Y19	Z19	X20	Y20	Z20	X21	Y21	Z21	X22	Y22	Z22	X23	Y23	Z23	X24	Y24	Z24	X25	Y25	Z25	X26	Y26	Z26	X27	Y27	Z27	X28	Y28	Z28	X29	Y29	Z29	X30	Y30	Z30	X31	Y31	Z31	X32	Y32	Z32	X33	Y33	Z33	X34	Y34	Z34	X35	Y35	Z35	X36	Y36	Z36	X37	Y37	Z37	X38	Y38	Z38	X39	Y39	Z39	X40	Y40	Z40	X41	Y41	Z41	X42	Y42	Z42	X43	Y43	Z43	X44	Y44	Z44	X45	Y45	Z45	X46	Y46	Z46	X47	Y47	Z47	X48	Y48	Z48	X49	Y49	Z49	X50	Y50	Z50	X51	Y51	Z51	X52	Y52	Z52	X53	Y53	Z53	X54	Y54	Z54	X55	Y55	Z55	X56	Y56	Z56	X57	Y57	Z57	X58	Y58	Z58	X59	Y59	Z59	X60	Y60	Z60	X61	Y61	Z61	

1	0	-165.0375366210938	1633.270751953125	-889.3723144531252	-302.7088928222657	1572.666015625	-995.4046630859377	-297.0067138671876	1573.97802734375	-843.066101074219	-354.8101501464844	1451.4560546875	-916.8448486328127	-379.8032226562501	1130.033935546875	-918.6973266601565	-220.7546844482422	1372.390502929688	-918.8468017578127	-303.3245544433594	1405.111572265625	-1086.505249023438	-327.8859252929688	1258.366455078125	-1218.473876953125	-309.1755065917969	1214.095947265625	-1204.669921875	-337.8259582519532	1201.819458007813	-1257.529418945313	-351.9234313964844	1152.736938476563	-1285.461181640625	-427.7600708007814	1137.60498046875	-1242.093383789063	-318.8036193847657	997.466979980469	-1103.651123046875	-278.0730895996094	964.3505859375002	-1140.828979492188	-270.6078491210938	1019.765563964844	-1087.249267578125	-294.1456909179688	1398.678588867188	-753.9906005859376	-350.4468078613282	1269.349609375	-615.9086914062501	-317.7941894531251	1231.444213867188	-611.1837158203126	-361.6523742675782	1213.271606445313	-573.5229492187501	-354.9404907226563	1144.109497070313	-548.2877807617189	-423.8998107910157	1125.952270507813	-603.9587402343751	-308.2889404296876	1006.931091308594	-740.8452148437501	-262.4938659667969	976.542663574219	-700.7416381835939	-256.1565856933594	1030.692749023438	-749.2562255859376	-210.6382141113282	941.064392089844	-819.3962402343752	-381.9817504882813	1026.532836914063	-914.0811767578127	-392.1759338378907	998.5572509765627	-941.9489746093752	-386.6283569335939	996.193054199219	-885.7912597656252	-320.8634948730469	799.2824707031252	-1094.594970703125	-301.4638977050782	716.4683227539064	-1093.151733398438	-252.7009735107422	713.6486206054689	-1083.232788085938	-336.6965637207032	668.7852783203126	-1079.482177734375	-354.2940368652344	508.5539550781251	-1055.457641601563	-315.5707092285157	497.2525329589845	-943.0234985351565	-320.9862365722657	363.0758666992188	-995.1536254882815	-346.8890075683594	312.5812683105469	-1062.755126953125	-317.4220886230469	314.5422363281251	-1028.574829101563	-327.9146728515626	235.9194488525391	-998.5581665039065	-386.9971008300782	110.3426284790039	-1053.101196289063	-355.2613220214844	120.8864669799805	-975.2100830078127	-443.5919494628907	97.63703918457034	-1007.081848144531	-241.5626373291016	53.94559478759767	-993.6170654296877	-236.3830566406251	50.41279983520509	-1032.3984375	-260.9540710449219	44.34572982788087	-1082.48974609375	-320.6433410644532	700.0081787109376	-757.6594848632814	-287.7883605957032	641.2957153320314	-754.7288818359376	-253.5393371582032	641.6277465820314	-760.2425537109376	-318.6170959472657	566.5041503906251	-771.5991210937502	-326.2922973632813	505.7858886718751	-778.4842529296877	-288.2877197265626	498.2351074218751	-891.8752441406252	-287.4765625000001	374.1027221679688	-794.0313110351565	-357.9067382812501	293.2730407714844	-775.706726074219	-311.1807250976563	290.4883728027344	-781.097351074219	-293.4573974609376	244.9602355957032	-812.7913818359377	-353.1413574218751	107.4935379028321	-787.903503417969	-324.4343566894532	117.9812698364258	-868.0908813476565	-407.200408935547	90.77854156494142	-832.8081665039065	-206.0163269042969	51.89864349365236	-845.8197021484377	-202.3585968017579	52.11582565307619	-800.0512695312502	-233.826400756836	35.94678497314454	-747.7050170898439	nan	nan	nan	
2	0.005	-165.1358489990235	1633.289916992188	-889.3652343750002	-302.6941528320313	1572.617065429688	-995.4010009765627	-297.0056762695313	1573.97412109375	-843.0670166015627	-354.8046264648438	1451.442138671875	-916.8153076171877	-379.8213195800782	1130.015869140625	-918.7111816406252	-220.760238647461	1372.346557617188	-918.8616943359377	-303.2936096191407	1405.091064453125	-1086.499755859375	-327.9057312011719	1258.32275390625	-1218.47314453125	-309.2169799804688	1214.083251953125	-1204.684326171875	-337.8105163574219	1201.81591796875	-1257.554931640625	-351.9197082519532	1152.682250976563	-1285.430297851563	-427.7852478027345	1137.627197265625	-1242.101196289063	-318.8226928710938	997.4318847656252	-1103.645141601563	-278.0525817871094	964.3328247070315	-1140.83154296875	-270.6087951660157	1019.760559082031	-1087.27392578125	-294.2495422363282	1398.669677734375	-754.0089111328126	-350.5090332031251	1269.355102539063	-615.9165649414064	-317.8696594238282	1231.4404296875	-611.1427612304689	-361.7265319824219	1213.249145507813	-573.5479125976564	-355.0224914550782	1144.102905273438	-548.2821044921876	-423.9179687500001	1125.997192382813	-603.9450683593751	-308.2381896972657	1006.945983886719	-740.8903808593751	-262.5067749023438	976.533142089844	-700.7753906250001	-256.1925354003907	1030.6689453125	-749.2886352539064	-210.6527862548829	941.0966796875002	-819.4204711914065	-381.9687805175782	1026.551391601563	-914.1394653320315	-392.1622314453126	998.5718994140627	-941.982360839844	-386.412322998047	996.524353027344	-885.942077636719	-320.7908020019532	799.3240356445315	-1094.585693359375	-301.5240478515626	716.4500732421876	-1093.15380859375	-252.6842651367188	713.6243286132814	-1083.258056640625	-336.6643981933594	668.7689819335939	-1079.467529296875	-354.3067016601563	508.5774230957032	-1055.461547851563	-315.5890502929688	497.2471923828126	-943.0501098632815	-320.9882812500001	363.0596618652344	-995.158142089844	-347.6210327148438	312.8231201171876	-1063.012084960938	-317.4618835449219	314.5450744628907	-1028.568603515625	-327.9603271484376	235.9260559082032	-998.5859375000002	-387.0079345703126	110.3389053344727	-1053.0791015625	-355.2466125488282	120.9036636352539	-975.1972656250002	-443.5883789062501	97.64295196533206	-1007.050964355469	-241.5626373291016	53.94559478759767	-993.6170654296877	-236.3648071289063	50.38488388061525	-1032.414306640625	-259.9728088378907	43.83799362182618	-1082.12939453125	-320.7011108398438	700.0106201171876	-757.6571044921876	-287.8359069824219	641.3261108398439	-754.7437133789064	-253.5513916015626	641.6369018554689	-760.2345581054689	-318.6533813476563	566.5274658203126	-771.647155761719	-326.3169250488282	505.8193664550782	-778.472839355469	-288.2947998046876	498.2149047851564	-891.8735351562502	-287.4794311523438	374.1001892089844	-794.0205078125002	-357.9158020019532	293.2645874023438	-775.694030761719	-311.1860046386719	290.5044555664063	-781.0975341796877	-293.4424133300782	244.9748840332032	-812.772888183594	-353.1584167480469	107.4702682495117	-787.891296386719	-324.4443664550782	117.9677734375	-868.0803833007815	-407.2088012695314	90.76952362060548	-832.8073730468752	-206.0029296875001	51.91012954711915	-845.8362426757815	-202.3540191650391	52.09589767456056	-800.0515747070315	-233.8058624267579	35.95992660522462	-747.7104492187501	nan	nan	nan	
3	0.01	-165.1240234375	1633.313842773438	-889.3413085937502	-302.6599121093751	1572.58935546875	-995.4282836914065	-297.0067138671876	1573.97802734375	-843.0660400390627	-354.8405761718751	1451.456665039063	-916.8404541015627	-379.8501892089844	1130.035034179688	-918.7447509765627	-220.7735748291016	1372.28857421875	-918.879333496094	-303.3258056640626	1405.085205078125	-1086.522705078125	-327.8812255859376	1258.340576171875	-1218.498291015625	-309.2451782226563	1214.0146484375	-1204.687622070313	-337.8361511230469	1201.771606445313	-1257.547973632813	-351.9402465820313	1152.687255859375	-1285.440673828125	-427.7537536621095	1137.591064453125	-1242.211181640625	-318.8270263671876	997.4373779296877	-1103.644897460938	-278.0280456542969	964.357360839844	-1140.850708007813	-270.6226806640626	1019.771362304688	-1087.256713867188	-294.2708129882813	1398.642456054688	-754.0213623046876	-350.5564880371094	1269.343139648438	-615.9514160156251	-317.9287719726563	1231.422607421875	-611.1408691406251	-361.7784729003907	1213.24072265625	-573.5505371093751	-355.0585632324219	1144.057006835938	-548.2963256835939	-424.0071105957032	1125.963745117188	-603.9691162109376	-308.3714599609376	1006.930969238281	-740.8905029296876	-262.5709228515626	976.5260009765627	-700.7827148437501	-256.2041320800782	1030.666381835938	-749.2451782226564	-210.6735229492188	941.0762939453127	-819.4033813476565	-381.9902954101563	1026.552978515625	-914.156188964844	-392.1849365234376	998.5686645507815	-941.9997558593752	-386.6958923339845	996.1738281250002	-885.863464355469	-320.8108825683594	799.290222167969	-1094.654418945313	-300.5489196777344	716.2676391601564	-1092.981689453125	-252.6842651367188	713.6243286132814	-1083.258056640625	-336.7215576171876	668.5072631835939	-1079.831787109375	-354.2988586425782	508.5718688964845	-1055.480834960938	-315.5651855468751	497.2209777832032	-943.0366821289065	-320.9862365722657	363.0758666992188	-995.1536254882815	-346.8595886230469	312.5431518554688	-1062.744750976563	-317.4221191406251	314.5270690917969	-1028.565307617188	-327.9490356445313	235.9310760498047	-998.5618896484377	-386.997039794922	110.3717269897461	-1053.078125	-355.2445373535157	120.9028549194336	-975.1610107421877	-443.1827697753907	97.43582153320315	-1006.94921875	-241.5698547363282	53.90792846679689	-993.614196777344	-236.3752746582032	50.38212203979494	-1032.423706054688	-260.0812988281251	43.80155181884766	-1082.120971679688	-320.7391357421876	700.0305786132814	-757.7214355468751	-287.8796997070313	641.3040771484376	-754.7568969726564	-253.6038513183594	641.6109008789064	-760.1981201171876	-318.6867370605469	566.5416870117189	-771.6196899414065	-326.3242187500001	505.8171691894532	-778.4876708984377	-288.2911682128907	498.1995849609376	-891.8525390625002	-287.4894104003907	374.0973510742188	-794.0417480468752	-357.9195251464844	293.2526550292969	-775.7220458984377	-311.1823425292969	290.5148925781251	-781.0930786132815	-293.4443054199219	244.9582519531251	-812.7891235351565	-353.1646728515626	107.4785079956055	-787.8896484375002	-324.4424133300782	117.9799041748047	-868.077819824219	-407.2072753906251	90.81499481201173	-832.7788085937502	-206.0203247070313	51.88566970825197	-845.8107910156252	-202.3523101806641	52.08217620849611	-800.053161621094	-233.8220520019532	35.94629669189454	-747.7158813476564	nan	nan	nan	
4	0.015	-165.1730041503907	1633.340942382813	-889.356872558594	-302.7218017578126	1572.606079101563	-995.442077636719	-297.0077514648438	1573.959228515625	-843.0374145507815	-354.8266296386719	1451.44921875	-916.8494873046877	-379.8435058593751	1130.04931640625	-918.7740478515627	-220.7715301513672	1372.255126953125	-918.9006958007815	-303.3199768066407	1405.073120117188	-1086.51318359375	-327.8993835449219	1258.320556640625	-1218.478759765625	-309.2320251464844	1214.0380859375	-1204.693969726563	-337.7877502441407	1201.775268554688	-1257.565307617188	-351.9535522460938	1152.646362304688	-1285.479614257813	-427.7500610351564	1137.554321289063	-1242.206176757813	-318.8047180175782	997.469909667969	-1103.65185546875	-278.0443725585938	964.350524902344	-1140.855102539063	-270.6604614257813	1019.777160644531	-1087.281616210938	-294.3349914550782	1398.626831054688	-754.0173950195314	-350.6171875000001	1269.338745117188	-615.9532470703126	-318.0053710937501	1231.391357421875	-611.1894531250001	-361.8533935546876	1213.227294921875	-573.5753784179689	-355.1654968261719	1144.057373046875	-548.3559570312501	-424.1118164062501	1125.975952148438	-603.9506835937501	-308.3728027343751	1006.93212890625	-740.8913574218751	-262.5912170410157	976.5167236328127	-700.8178100585939	-256.2341308593751	1030.64208984375	-749.2987060546876	-210.7386932373047	941.0839843750002	-819.4017333984377	-381.9908142089844	1026.55126953125	-914.1855468750002	-392.2319335937501	998.5678710937502	-942.0288696289065	-386.2209777832032	996.485778808594	-886.0998535156252	-320.8204956054688	799.3032226562502	-1094.681762695313	-301.4721069335938	716.4922485351564	-1093.16259765625	-252.6749572753907	713.6397705078126	-1083.281005859375	-336.6637878417969	668.4945068359376	-1079.79736328125	-354.3301696777344	508.5663146972657	-1055.471801757813	-315.6130676269532	497.1855468750001	-943.0422363281252	-321.0116577148438	363.0506286621094	-995.1756591796877	-347.6164855957032	312.8058471679688	-1063.002563476563	-317.4992065429688	314.5050048828126	-1028.580810546875	-327.9794006347657	235.9187927246094	-998.613952636719	-387.0215148925782	110.3591384887696	-1053.102172851563	-355.2432556152344	120.9124069213867	-975.1815185546877	-443.1894531250001	97.46728515625003	-1006.924133300781	-241.5698547363282	53.90792846679689	-993.614196777344	-236.3641815185547	50.38648986816408	-1032.387451171875	-260.0124816894532	43.81699371337891	-1082.115600585938	-320.7354431152344	700.0338134765626	-757.6972656250001	-287.8815917968751	641.3119506835939	-754.7667846679689	-253.6512603759766	641.6452026367189	-760.2346801757814	-318.7016906738282	566.5375976562501	-771.598815917969	-326.3425292968751	505.8229980468751	-778.5092773437502	-288.3342285156251	498.211151123047	-891.8819580078127	-287.5491943359376	374.0797424316407	-793.9978637695315	-357.9093627929688	293.2680358886719	-775.7167968750002	-311.2377319335938	290.5378723144532	-781.0958251953127	-293.4487915039063	244.9842224121094	-812.7512817382815	-353.1593322753907	107.4941558837891	-787.8894042968752	-324.4131164550782	118.0014343261719	-868.0722656250002	-407.2091674804689	90.78543853759767	-832.781188964844	-206.0339660644532	51.87463378906251	-845.845642089844	-202.3709411621094	52.07077789306642	-800.0530395507815	-233.811508178711	35.94982910156251	-747.7014770507814	nan	nan	nan	
